<svg width="90" height="91" viewBox="0 0 90 91" fill="none" xmlns="http://www.w3.org/2000/svg">
<path d="M12.0307 0C13.0307 0.7 14.1307 1.1 14.8307 1.8C23.0307 10.6 32.6307 17.9 41.4307 25.9C43.3307 27.6 45.3307 29.3 47.3307 31C48.8307 32.3 50.2307 33.7 51.7307 35.1C54.8307 37.9 57.8307 40.7 60.9307 43.4C65.7307 47.6 70.7307 51.5 75.3307 56C78.6307 59.2 82.3307 61.9 85.8307 64.9C87.0307 66 87.9307 67.3 88.9307 68.6C89.2307 69 89.2307 69.9 89.0307 70.1C88.6307 70.5 87.7307 70.8 87.3307 70.6C84.6307 69.5 81.9307 68.5 79.7307 66.5C77.0307 64.1 74.2307 61.8 71.7307 59.2C67.7307 55.3 63.3307 51.9 59.0307 48.5C55.6307 45.8 52.4307 43 49.6307 39.8C47.4307 37.3 44.7307 35.4 42.2307 33.1C41.0307 32 39.8307 30.7 38.6307 29.5C37.7307 28.6 36.7307 27.6 35.7307 26.7C29.0307 20.8 22.1307 15 16.2307 8.3C15.0307 6.9 13.8307 5.5 12.8307 4C11.8307 3 11.5307 1.7 12.0307 0Z" fill="white"/>
<path d="M0.430666 13.2C1.53067 14.3 2.43067 15 3.23067 15.9C4.53067 17.6 5.93067 19.3 7.03067 21.1C10.1307 26.6 14.4307 31 18.5307 35.7C26.2307 44.5 34.7307 52.5 43.3307 60.4C47.7307 64.4 52.3307 68.1 57.1307 71.5C61.2307 74.4 65.1307 77.6 69.0307 80.8C70.5307 82 71.9307 83.3 73.3307 84.7C74.3307 85.7 74.3307 86.1 73.3307 87.4C72.5307 88.5 72.2307 88.5 70.9307 87.8C69.3307 86.9 67.5307 86.2 66.1307 85.2C63.1307 83.1 60.3307 80.7 57.3307 78.5C56.1307 77.6 54.8307 76.7 53.6307 75.7C45.0307 69.3 37.4307 62 29.9307 54.5C25.0307 49.6 20.0307 44.7 15.7307 39.2C13.6307 36.5 11.4307 34 9.33067 31.3C8.53067 30.3 8.13067 29.1 7.53067 28C5.33067 24.6 3.13067 21.2 0.930666 17.8C0.0306661 16.5 -0.369334 15.2 0.430666 13.2Z" fill="white"/>
<path d="M86.5307 45.3C86.0307 44.9 85.6307 44.4 85.1307 44C83.7307 43 82.5307 41.6 80.8307 41C80.3307 40.8 79.9307 40.4 79.6307 40.1C75.8307 36.3 72.0307 32.5 68.2307 28.7C67.9307 28.4 67.7307 28.2 67.4307 27.9C61.7307 20.7 55.0307 14.4 48.4307 7.99999C47.3307 6.89999 46.2307 5.79999 45.2307 4.69999C43.4307 2.59999 43.8307 1.29999 46.8307 0.299988C51.4307 4.79999 56.3307 9.39999 60.9307 14.2C66.5307 19.8 71.8307 25.7 77.5307 31.4C80.7307 34.6 83.1307 38.4 86.2307 41.7C86.7307 42.3 87.0307 43.1 87.3307 43.8C87.6307 44.5 87.2307 45 86.5307 45.3Z" fill="white"/>
<path d="M0.630615 46.9C1.53062 46.3 2.03062 46.7 2.53062 47.2C3.43062 48.1 4.53062 49 5.23062 50.1C8.23062 54.6 12.5306 57.9 16.2306 61.6C19.8306 65.2 23.6306 68.7 27.4306 72.1C31.8306 76.1 36.4306 80 40.9306 83.9C41.6306 84.5 42.3306 85 42.9306 85.7C43.3306 86.2 43.7306 87 43.7306 87.6C43.7306 88.3 43.5306 89.3 43.0306 89.8C42.2306 90.5 41.5306 89.5 40.9306 89.1C37.0306 86 33.0306 82.9 29.2306 79.6C27.1306 77.8 25.2306 75.6 23.3306 73.6C18.3306 68.6 13.2306 63.6 8.43061 58.5C5.13062 55 2.73062 51 0.630615 46.9Z" fill="white"/>
<path d="M78.2307 0.399994C79.6307 2.39999 81.0307 4.49999 82.4307 6.49999C84.0307 8.79999 85.7307 11.1 87.3307 13.3C88.5307 14.9 88.3307 15.9 86.3307 17.1C85.6307 16.3 84.8307 15.6 84.1307 14.8C81.3307 12 78.5307 9.19999 75.8307 6.29999C73.7307 4.09999 75.0307 0.999994 78.2307 0.399994Z" fill="white"/>
<path d="M0.430656 76.9C1.73066 78 3.03066 79 4.23066 80.1C5.93066 81.6 7.73066 83 9.43066 84.5C10.7307 85.6 11.4307 87 10.7307 88.8C10.3307 88.7 10.0307 88.7 9.83066 88.5C7.83066 86.8 5.73066 85.1 3.83066 83.3C2.63066 82.2 1.63066 80.9 0.630655 79.6C0.130655 79 -0.169344 78 0.430656 76.9Z" fill="white"/>
</svg>
