<svg width="207" height="73" viewBox="0 0 207 73" fill="none" xmlns="http://www.w3.org/2000/svg">
<path d="M37.4609 42.3339C37.4609 45.5321 36.5188 47.9817 34.6345 49.6827C32.7595 51.3837 30.0474 52.2342 26.4985 52.2342H20.8184V32.8056H27.1159C30.3904 32.8056 32.9332 33.6429 34.7443 35.3173C36.5554 36.9917 37.4609 39.3306 37.4609 42.3339ZM33.043 42.4402C33.043 38.2674 31.1405 36.1811 27.3354 36.1811H25.0716V48.8322H26.8964C30.9941 48.8322 33.043 46.7016 33.043 42.4402Z" fill="#00AFF0"/>
<path d="M52.2117 52.2342L50.7574 47.6096H43.4445L41.9902 52.2342H37.4077L44.4873 32.7259H49.6872L56.7942 52.2342H52.2117ZM49.7421 44.1545C48.3975 39.964 47.6383 37.5941 47.4645 37.0449C47.2999 36.4956 47.181 36.0615 47.1078 35.7425C46.806 36.8765 45.9416 39.6805 44.5147 44.1545H49.7421Z" fill="#00AFF0"/>
<path d="M65.3847 52.2342H61.1314V36.2342H55.6845V32.8056H70.8316V36.2342H65.3847V52.2342Z" fill="#00AFF0"/>
<path d="M88.5597 32.8056V45.3771C88.5597 46.8123 88.2258 48.0703 87.5581 49.1512C86.8995 50.232 85.9437 51.0604 84.6906 51.6362C83.4375 52.2121 81.9557 52.5 80.2452 52.5C77.6659 52.5 75.6627 51.8621 74.2358 50.5864C72.8089 49.3018 72.0955 47.5476 72.0955 45.3239V32.8056H76.335V44.6993C76.335 46.1966 76.646 47.2951 77.268 47.995C77.8899 48.6949 78.919 49.0448 80.355 49.0448C81.7453 49.0448 82.7515 48.6949 83.3734 47.995C84.0046 47.2863 84.3201 46.1788 84.3201 44.6728V32.8056H88.5597Z" fill="#00AFF0"/>
<path d="M108.786 47.2243C108.786 48.8455 108.169 50.1301 106.934 51.0781C105.709 52.026 104.076 52.5 102.036 52.5C99.5848 52.5 97.7051 52.2386 96.3971 51.7159V50.3605C97.8423 50.954 99.6854 51.2508 101.926 51.2508C103.573 51.2508 104.876 50.8876 105.837 50.1611C106.806 49.4258 107.291 48.4646 107.291 47.2774C107.291 46.5421 107.131 45.9352 106.811 45.4568C106.491 44.9695 105.969 44.5266 105.247 44.1279C104.524 43.7292 103.463 43.2996 102.064 42.8389C100.015 42.1567 98.5969 41.4214 97.8103 40.6329C97.0328 39.8355 96.6441 38.7769 96.6441 37.4568C96.6441 36.0039 97.2295 34.8212 98.4003 33.9086C99.5802 32.9873 101.094 32.5266 102.942 32.5266C104.826 32.5266 106.596 32.8721 108.251 33.5631L107.744 34.7326C106.079 34.0592 104.487 33.7226 102.969 33.7226C101.487 33.7226 100.307 34.0548 99.4293 34.7193C98.5512 35.3837 98.1122 36.2874 98.1122 37.4302C98.1122 38.1478 98.2448 38.737 98.5101 39.1977C98.7845 39.6584 99.2281 40.0747 99.8409 40.4468C100.454 40.8101 101.506 41.2486 102.997 41.7625C104.561 42.2852 105.736 42.7946 106.523 43.2907C107.309 43.778 107.881 44.3361 108.238 44.9651C108.604 45.5853 108.786 46.3383 108.786 47.2243Z" fill="#00AFF0"/>
<path d="M124.827 52.2342H123.112L115.415 41.9751L112.739 44.2608V52.2342H111.34V32.8056H112.739V42.9053L114.962 40.7525L122.824 32.8056H124.607L116.389 41.0183L124.827 52.2342Z" fill="#00AFF0"/>
<path d="M142.843 42.4934C142.843 45.5764 142.047 48.0172 140.456 49.8156C138.864 51.6052 136.669 52.5 133.87 52.5C131.08 52.5 128.89 51.6052 127.298 49.8156C125.707 48.0172 124.911 45.5676 124.911 42.4668C124.911 39.3749 125.711 36.943 127.312 35.1711C128.922 33.3904 131.117 32.5 133.898 32.5C136.697 32.5 138.887 33.3948 140.47 35.1844C142.052 36.9651 142.843 39.4014 142.843 42.4934ZM126.434 42.4934C126.434 45.2752 127.074 47.428 128.355 48.9518C129.635 50.4668 131.474 51.2243 133.87 51.2243C136.285 51.2243 138.128 50.4712 139.399 48.9651C140.68 47.459 141.32 45.3018 141.32 42.4934C141.32 39.6938 140.68 37.5498 139.399 36.0615C138.128 34.5642 136.294 33.8156 133.898 33.8156C131.51 33.8156 129.667 34.5687 128.368 36.0748C127.079 37.5808 126.434 39.7204 126.434 42.4934Z" fill="#00AFF0"/>
<path d="M145.781 52.2342V32.8056H147.18V50.9585H156.743V52.2342H145.781Z" fill="#00AFF0"/>
<path d="M170.455 45.3771H162.306L159.507 52.2342H157.956L166.024 32.7259H166.916L174.818 52.2342H173.241L170.455 45.3771ZM162.813 44.1545H169.989L167.259 37.1512C167.03 36.6019 166.755 35.84 166.435 34.8654C166.188 35.7159 165.919 36.4867 165.626 37.1777L162.813 44.1545Z" fill="#00AFF0"/>
<path d="M4.85356 0.646446C4.65829 0.451187 4.34171 0.451187 4.14645 0.646446L0.964469 3.82843C0.769207 4.02369 0.769207 4.34027 0.964469 4.53554C1.15973 4.7308 1.47631 4.7308 1.67158 4.53554L4.5 1.70711L7.32843 4.53554C7.52369 4.7308 7.84027 4.7308 8.03554 4.53554C8.2308 4.34027 8.2308 4.02369 8.03554 3.82843L4.85356 0.646446ZM5 69L5 1L4 1L4 69L5 69Z" fill="#00AFF0"/>
<path d="M206.354 68.8536C206.549 68.6583 206.549 68.3417 206.354 68.1465L203.172 64.9645C202.976 64.7692 202.66 64.7692 202.464 64.9645C202.269 65.1597 202.269 65.4763 202.464 65.6716L205.293 68.5L202.464 71.3284C202.269 71.5237 202.269 71.8403 202.464 72.0356C202.66 72.2308 202.976 72.2308 203.172 72.0356L206.354 68.8536ZM4 69L206 69L206 68L4 68L4 69Z" fill="#00AFF0"/>
</svg>
