<svg width="40" height="40" viewBox="0 0 40 40" fill="none" xmlns="http://www.w3.org/2000/svg">
<g clip-path="url(#clip0)">
<path d="M16.5233 14.8634V3.30086C16.5233 1.48078 15.0425 0 13.2225 0C11.6258 0 10.2599 1.14031 9.97474 2.71133L6.27896 23.0702C6.06302 24.2598 5.33021 25.2736 4.26849 25.8517L0.6113 27.8433C0.0429408 28.1528 -0.166981 28.8645 0.14255 29.4329C0.355206 29.8233 0.757472 30.0445 1.17286 30.0445C1.36216 30.0445 1.55427 29.9985 1.73224 29.9016L5.38942 27.9102C7.07708 26.9911 8.24185 25.3796 8.58505 23.4888L12.2808 3.12984C12.3635 2.67438 12.7595 2.34375 13.2225 2.34375C13.7502 2.34375 14.1796 2.77312 14.1796 3.30086V14.8367C12.7954 15.3093 11.7968 16.6218 11.7968 18.164V26.4062C11.7968 27.0534 12.3215 27.578 12.9686 27.578C13.6158 27.578 14.1405 27.0534 14.1405 26.4062V18.164C14.1405 17.5178 14.6662 16.9921 15.3124 16.9921C15.9586 16.9921 16.4843 17.5178 16.4843 18.164V30.1931C16.4843 31.0787 16.0476 31.9056 15.3161 32.4048L13.029 33.9661C12.4751 34.3441 11.8047 34.5002 11.1408 34.4054L9.44013 34.1627C8.55646 34.0368 7.6695 34.185 6.87489 34.5917L0.637706 37.7848C0.0616127 38.0797 -0.166278 38.7859 0.128644 39.362C0.335988 39.7672 0.746769 40.0002 1.17271 40.0001C1.35239 40.0001 1.53482 39.9586 1.70575 39.8711L7.94294 36.678C8.30403 36.4932 8.70716 36.4257 9.10888 36.483L10.8097 36.7257C12.054 36.9032 13.3117 36.6106 14.3502 35.9019L16.6373 34.3406C18.009 33.4045 18.8279 31.8539 18.8279 30.1931V18.164C18.828 16.6508 17.8671 15.3579 16.5233 14.8634Z" fill="#00141C"/>
<path d="M39.3618 37.7848L33.1246 34.5917C32.33 34.1848 31.4431 34.0367 30.5595 34.1627L28.8588 34.4054C28.1949 34.5002 27.5244 34.3441 26.9706 33.9661L24.6834 32.4048C23.952 31.9055 23.5153 31.0787 23.5153 30.1931V18.164C23.5153 17.5178 24.041 16.9921 24.6871 16.9921C25.3333 16.9921 25.859 17.5178 25.859 18.164V26.4062C25.859 27.0534 26.3837 27.578 27.0309 27.578C27.6781 27.578 28.2027 27.0534 28.2027 26.4062V18.164C28.2027 16.6218 27.2042 15.3093 25.8199 14.8367V3.30086C25.8199 2.77312 26.2493 2.34375 26.777 2.34375C27.24 2.34375 27.636 2.67438 27.7188 3.12992L31.4145 23.4888C31.7578 25.3797 32.9226 26.9912 34.6102 27.9102L38.2673 29.9017C38.4453 29.9986 38.6373 30.0446 38.8267 30.0446C39.242 30.0446 39.6444 29.8234 39.857 29.433C40.1666 28.8646 39.9566 28.1529 39.3883 27.8434L35.7311 25.8519C34.6693 25.2737 33.9365 24.2599 33.7206 23.0704L30.0248 2.71133C29.7396 1.14031 28.3738 0 26.777 0C24.957 0 23.4762 1.48078 23.4762 3.30086V14.8634C22.1325 15.3579 21.1715 16.6508 21.1715 18.164V30.1931C21.1715 31.8539 21.9904 33.4044 23.3621 34.3406L25.6493 35.9019C26.6877 36.6107 27.945 36.9032 29.1898 36.7257L30.8906 36.483C31.2924 36.4257 31.6954 36.4932 32.0565 36.678L38.2937 39.8711C38.4646 39.9587 38.647 40.0001 38.8267 40.0001C39.2527 40.0001 39.6634 39.7672 39.8708 39.362C40.1658 38.7859 39.9379 38.0797 39.3618 37.7848Z" fill="#00141C"/>
<path d="M34.6099 5.54681C34.8633 5.54681 35.1185 5.46502 35.3332 5.29635L37.5207 3.5776C38.0296 3.17775 38.118 2.44103 37.7181 1.93205C37.3182 1.42314 36.5814 1.33471 36.0725 1.73463L33.8851 3.45338C33.3761 3.85322 33.2877 4.58994 33.6876 5.09885C33.9188 5.39306 34.2627 5.54681 34.6099 5.54681Z" fill="#00141C"/>
<path d="M39.2313 16.2434L36.8875 15.3841C36.28 15.161 35.6066 15.4731 35.3838 16.0809C35.161 16.6885 35.4731 17.3618 36.0806 17.5845L38.4244 18.4439C38.5575 18.4927 38.6937 18.5159 38.8278 18.5159C39.3053 18.5159 39.7541 18.2216 39.9281 17.7471C40.1509 17.1395 39.8389 16.4663 39.2313 16.2434Z" fill="#00141C"/>
<path d="M34.4695 10.5097C34.567 11.081 35.0627 11.4846 35.6234 11.4846C35.6888 11.4846 35.7552 11.4791 35.822 11.4677L39.0251 10.9208C39.6631 10.8118 40.092 10.2064 39.9831 9.56839C39.8741 8.93042 39.2685 8.50144 38.6306 8.61042L35.4275 9.1573C34.7895 9.26628 34.3606 9.87175 34.4695 10.5097Z" fill="#00141C"/>
<path d="M2.47936 3.5777L4.66686 5.29645C4.88154 5.46512 5.1367 5.54692 5.39014 5.54692C5.73732 5.54692 6.08123 5.39317 6.3124 5.09903C6.71225 4.59004 6.62381 3.8534 6.11498 3.45356L3.92748 1.73481C3.41865 1.33504 2.68193 1.42332 2.28193 1.93223C1.88209 2.44113 1.97053 3.17785 2.47936 3.5777Z" fill="#00141C"/>
<path d="M3.11249 15.3841L0.768743 16.2434C0.161165 16.4663 -0.150866 17.1395 0.0719463 17.7471C0.246009 18.2216 0.694603 18.5159 1.17226 18.5159C1.30624 18.5159 1.44257 18.4927 1.57562 18.4439L3.91937 17.5845C4.52695 17.3617 4.83898 16.6885 4.61616 16.0809C4.39327 15.4732 3.71991 15.161 3.11249 15.3841Z" fill="#00141C"/>
<path d="M0.974867 10.9208L4.17799 11.4677C4.24471 11.4791 4.31112 11.4846 4.37659 11.4846C4.93721 11.4846 5.43291 11.081 5.53041 10.5097C5.6394 9.87175 5.21041 9.26628 4.57244 9.15729L1.36932 8.61042C0.730804 8.50144 0.125883 8.9305 0.0168981 9.56839C-0.0920081 10.2064 0.336898 10.8119 0.974867 10.9208Z" fill="#00141C"/>
</g>
<defs>
<clipPath id="clip0">
<rect width="40" height="40" fill="white"/>
</clipPath>
</defs>
</svg>
