<svg width="40" height="40" viewBox="0 0 40 40" fill="none" xmlns="http://www.w3.org/2000/svg">
<circle cx="20" cy="20" r="19.5" stroke="#2AC480"/>
<g clip-path="url(#clip0)">
<path d="M22.6064 20.082L28.0004 23.492V16.528L22.6064 20.082Z" fill="#2AC480"/>
<path d="M12 16.528V23.492L17.394 20.082L12 16.528Z" fill="#2AC480"/>
<path d="M27.0003 14.5H13.0003C12.5013 14.5 12.1053 14.872 12.0303 15.351L20.0003 20.602L27.9703 15.351C27.8953 14.872 27.4993 14.5 27.0003 14.5Z" fill="#2AC480"/>
<path d="M21.6892 20.6861L20.2743 21.6181C20.1903 21.6731 20.0953 21.7001 19.9992 21.7001C19.9032 21.7001 19.8082 21.6731 19.7242 21.6181L18.3092 20.6851L12.0312 24.6561C12.1082 25.1311 12.5022 25.5001 12.9992 25.5001H26.9993C27.4963 25.5001 27.8903 25.1311 27.9673 24.6561L21.6892 20.6861Z" fill="#2AC480"/>
</g>
<defs>
<clipPath id="clip0">
<rect width="16" height="16" fill="white" transform="translate(12 12)"/>
</clipPath>
</defs>
</svg>
