<svg width="40" height="40" viewBox="0 0 40 40" fill="none" xmlns="http://www.w3.org/2000/svg">
<g clip-path="url(#clip0)">
<path d="M20.6881 1.37619C17.5981 1.37619 14.5518 2.12067 11.8218 3.53555L8.62969 0.343281C8.34737 0.0608052 7.94059 -0.0585686 7.5504 0.0263855C7.16021 0.11134 6.83995 0.388966 6.70047 0.763202L5.08853 5.08827L0.763537 6.70013C0.389301 6.83961 0.111675 7.15987 0.0267208 7.55006C-0.0581551 7.94026 0.0611405 8.34696 0.343617 8.62936L3.53581 11.8216C2.12093 14.5516 1.37644 17.5978 1.37644 20.6878C1.37644 31.3363 10.0396 39.9996 20.6881 39.9996C31.3366 39.9996 39.9999 31.3363 39.9999 20.6878C39.9999 10.0393 31.3366 1.37619 20.6881 1.37619ZM20.6881 27.0436C24.1927 27.0436 27.0439 24.1925 27.0439 20.6878C27.0439 17.1832 24.1927 14.3321 20.6881 14.3321C19.3589 14.3321 18.1242 14.7429 17.103 15.4433L14.1525 12.4928C15.9463 11.0594 18.2187 10.2008 20.6881 10.2008C26.4706 10.2008 31.1751 14.9053 31.1751 20.6878C31.1751 26.4703 26.4706 31.1748 20.6881 31.1748C14.9056 31.1748 10.2012 26.4703 10.2012 20.6878C10.2012 18.2185 11.0596 15.946 12.4931 14.1522L15.4435 17.1027C14.7432 18.124 14.3323 19.3586 14.3323 20.6878C14.3323 24.1924 17.1835 27.0436 20.6881 27.0436ZM21.5178 19.8581L18.8081 17.1483C19.3692 16.8491 20.0091 16.6788 20.6881 16.6788C22.8987 16.6788 24.6971 18.4772 24.6971 20.6878C24.6971 22.8983 22.8987 24.6967 20.6881 24.6967C18.4776 24.6967 16.6791 22.8983 16.6791 20.6878C16.6791 20.0087 16.8494 19.3689 17.1486 18.8077L19.8584 21.5175C20.0875 21.7466 20.3879 21.8612 20.6881 21.8612C20.9884 21.8612 21.2887 21.7465 21.5178 21.5175C21.9761 21.0593 21.9761 20.3163 21.5178 19.8581ZM8.26171 3.29415L12.2103 7.24279L11.7027 10.0429L7.36359 5.70392L8.26171 3.29415ZM3.29448 8.26138L5.70425 7.36334L10.0433 11.7023L7.24313 12.21L3.29448 8.26138ZM20.6881 37.6528C11.3337 37.6528 3.72324 30.0423 3.72324 20.6878C3.72324 18.2253 4.2616 15.795 5.28942 13.5752L6.0181 14.3038C6.2401 14.5259 6.5394 14.6476 6.84777 14.6476C6.91731 14.6476 6.98732 14.6414 7.0571 14.6288L9.64288 14.1601C8.5075 16.0739 7.85447 18.3058 7.85447 20.6878C7.85447 27.7644 13.6116 33.5216 20.6882 33.5216C27.7647 33.5216 33.5219 27.7644 33.5219 20.6878C33.5219 13.6113 27.7647 7.85405 20.6882 7.85405C18.3062 7.85405 16.0742 8.50717 14.1604 9.64255L14.6291 7.05677C14.6977 6.67815 14.5763 6.28983 14.3042 6.01776L13.5756 5.28908C15.7953 4.26126 18.2257 3.72291 20.6882 3.72291C30.0427 3.72291 37.6532 11.3333 37.6532 20.6878C37.6531 30.0423 30.0426 37.6528 20.6881 37.6528Z" fill="#00141C"/>
</g>
<defs>
<clipPath id="clip0">
<rect width="40" height="40" fill="white"/>
</clipPath>
</defs>
</svg>
