<svg width="40" height="40" viewBox="0 0 40 40" fill="none" xmlns="http://www.w3.org/2000/svg">
<circle cx="20" cy="20" r="19.5" stroke="#00141C"/>
<path d="M11.8997 18.395C13.6656 18.395 15.0972 16.9635 15.0972 15.1975C15.0972 13.4316 13.6656 12 11.8997 12C10.1337 12 8.70215 13.4316 8.70215 15.1975C8.70215 16.9635 10.1337 18.395 11.8997 18.395Z" fill="#00141C"/>
<path d="M15.9716 20.8819C15.3703 19.8981 14.3045 19.2422 13.0747 19.2422H10.6971C8.97531 19.2422 7.52686 20.5267 7.33555 22.2211L7.0076 25.0087C6.95295 25.3639 7.19891 25.6919 7.55419 25.7739C8.92065 26.0745 10.3691 26.2111 11.8995 26.2111C12.6648 26.2111 13.4026 26.1838 14.1405 26.1018L14.4412 23.7242C14.5778 22.6037 15.1517 21.5925 15.9716 20.8819Z" fill="#00141C"/>
<path d="M28.0784 18.395C29.8443 18.395 31.2759 16.9635 31.2759 15.1975C31.2759 13.4316 29.8443 12 28.0784 12C26.3124 12 24.8809 13.4316 24.8809 15.1975C24.8809 16.9635 26.3124 18.395 28.0784 18.395Z" fill="#00141C"/>
<path d="M32.6419 22.2484C32.4506 20.554 31.0021 19.2695 29.2804 19.2695H26.9028C25.6729 19.2695 24.6071 19.9254 24.0059 20.9093C24.8531 21.5925 25.427 22.6037 25.5636 23.7515L25.8642 26.1292C26.6021 26.2112 27.34 26.2385 28.1052 26.2385C29.6084 26.2385 31.0841 26.0745 32.4506 25.8012C32.8059 25.7192 33.0245 25.3913 32.9972 25.036L32.6419 22.2484Z" fill="#00141C"/>
<path d="M21.1645 20.8818H18.7869C17.0652 20.8818 15.6167 22.1663 15.4254 23.8607L15.0974 26.621C15.0428 26.9763 15.2888 27.3315 15.644 27.3862C17.0105 27.6868 18.4863 27.8235 19.9894 27.8235C21.4925 27.8235 22.9683 27.6595 24.3347 27.3862C24.69 27.3042 24.9086 26.9763 24.8813 26.621L24.5534 23.8607C24.3347 22.1663 22.8863 20.8818 21.1645 20.8818Z" fill="#00141C"/>
<path d="M19.9885 20.0073C21.7545 20.0073 23.1861 18.5758 23.1861 16.8098C23.1861 15.0439 21.7545 13.6123 19.9885 13.6123C18.2226 13.6123 16.791 15.0439 16.791 16.8098C16.791 18.5758 18.2226 20.0073 19.9885 20.0073Z" fill="#00141C"/>
</svg>
