<svg width="40" height="40" viewBox="0 0 40 40" fill="none" xmlns="http://www.w3.org/2000/svg">
<g clip-path="url(#clip0)">
<path d="M39.9529 2.98633C39.8663 1.39742 38.6026 0.133906 37.0137 0.0471877C33.8076 -0.127969 27.5338 0.0424222 21.5348 3.14531C18.4766 4.72719 15.2422 7.40914 12.661 10.5035C12.6292 10.5416 12.5983 10.58 12.5667 10.6182L6.70892 11.0707C5.7447 11.1452 4.88587 11.6506 4.35259 12.4572L0.356182 18.5019C-0.0482715 19.1136 -0.112568 19.8791 0.184072 20.5497C0.480791 21.2203 1.09048 21.6877 1.81509 21.7999L6.75032 22.5643C6.7329 22.6602 6.7154 22.7561 6.69938 22.852C6.53509 23.8348 6.86071 24.8453 7.57056 25.5551L14.4449 32.4295C15.0334 33.018 15.8287 33.3425 16.6435 33.3425C16.8113 33.3425 16.9801 33.3287 17.1481 33.3006C17.244 33.2846 17.3399 33.2671 17.4358 33.2497L18.2002 38.185C18.3124 38.9096 18.7798 39.5194 19.4502 39.816C19.7292 39.9394 20.0245 40.0004 20.3184 40.0004C20.7311 40.0003 21.1409 39.8802 21.4981 39.644L27.5428 35.6475C28.3495 35.1141 28.8548 34.2553 28.9291 33.2912L29.3817 27.4334C29.4199 27.4019 29.4583 27.3709 29.4964 27.3391C32.5909 24.758 35.2729 21.5236 36.8547 18.4653C39.9577 12.466 40.1278 6.19219 39.9529 2.98633ZM26.2502 33.6923L20.4681 37.5152L19.7231 32.7055C22.1669 31.987 24.5843 30.8362 26.8874 29.2945L26.5926 33.1105C26.5742 33.3486 26.4494 33.5607 26.2502 33.6923ZM16.1022 30.7723L9.22774 23.8978C9.05235 23.7223 8.97126 23.4759 9.01103 23.2384C9.2154 22.0163 9.53298 20.853 9.9261 19.757L20.2408 30.0717C18.9245 30.5432 17.7456 30.8245 16.7616 30.989C16.5238 31.0285 16.2776 30.9477 16.1022 30.7723ZM6.88946 13.4075L10.7054 13.1127C9.16368 15.4158 8.0129 17.8332 7.29438 20.277L2.4847 19.532L6.30767 13.7498C6.43938 13.5506 6.65149 13.4259 6.88946 13.4075ZM27.9953 25.5392C26.1021 27.1184 24.2644 28.2605 22.5705 29.087L10.9126 17.4291C11.9952 15.2179 13.3166 13.3766 14.4608 12.0048C16.8495 9.14117 19.8203 6.67078 22.6117 5.22703C28.1174 2.37914 33.9183 2.22578 36.8861 2.38734C37.2789 2.40875 37.5913 2.72117 37.6127 3.11406C37.7745 6.08187 37.6209 11.8827 34.773 17.3885C33.3293 20.1798 30.8589 23.1505 27.9953 25.5392Z" fill="#00141C"/>
<path d="M27.4002 18.4565C28.9004 18.4563 30.4012 17.8853 31.5433 16.7431C32.65 15.6365 33.2594 14.1651 33.2594 12.6001C33.2594 11.0351 32.6499 9.56369 31.5433 8.45705C29.2588 6.17244 25.5416 6.1726 23.2572 8.45705C22.1505 9.56369 21.541 11.0351 21.541 12.6001C21.541 14.1651 22.1505 15.6365 23.2572 16.7431C24.3995 17.8855 25.8995 18.4567 27.4002 18.4565ZM24.9143 10.1142C25.5996 9.42885 26.4998 9.08619 27.4001 9.08619C28.3004 9.08619 29.2006 9.42885 29.8859 10.1142C30.5499 10.7782 30.9155 11.661 30.9155 12.6C30.9155 13.539 30.5499 14.4219 29.8859 15.0859C28.5153 16.4566 26.2849 16.4565 24.9142 15.0859C24.2502 14.4219 23.8845 13.5391 23.8845 12.6001C23.8845 11.6611 24.2503 10.7782 24.9143 10.1142Z" fill="#00141C"/>
<path d="M1.1954 32.964C1.49532 32.964 1.79524 32.8496 2.02399 32.6207L5.85 28.7947C6.30766 28.337 6.30766 27.5951 5.85 27.1374C5.39243 26.6798 4.6504 26.6798 4.19274 27.1374L0.366802 30.9635C-0.0908545 31.4211 -0.0908545 32.1631 0.366802 32.6207C0.595552 32.8496 0.895474 32.964 1.1954 32.964Z" fill="#00141C"/>
<path d="M9.35629 30.6438C8.89871 30.1861 8.15668 30.1861 7.69902 30.6438L0.343242 37.9996C-0.114414 38.4573 -0.114414 39.1993 0.343242 39.6569C0.57207 39.8857 0.871914 40.0001 1.17184 40.0001C1.47176 40.0001 1.77168 39.8857 2.00043 39.6568L9.35621 32.301C9.81394 31.8434 9.81394 31.1014 9.35629 30.6438Z" fill="#00141C"/>
<path d="M11.2054 34.1499L7.37937 37.9759C6.92172 38.4336 6.92172 39.1755 7.37937 39.6332C7.6082 39.862 7.90812 39.9765 8.20797 39.9765C8.50781 39.9765 8.80781 39.8621 9.03656 39.6332L12.8626 35.8072C13.3202 35.3495 13.3202 34.6075 12.8626 34.1499C12.405 33.6922 11.663 33.6922 11.2054 34.1499Z" fill="#00141C"/>
</g>
<defs>
<clipPath id="clip0">
<rect width="40" height="40" fill="white"/>
</clipPath>
</defs>
</svg>
